<?xml version="1.0" encoding="UTF-8" standalone="no"?>
<!-- Created with Inkscape (http://www.inkscape.org/) -->

<svg
   xmlns:osb="http://www.openswatchbook.org/uri/2009/osb"
   xmlns:dc="http://purl.org/dc/elements/1.1/"
   xmlns:cc="http://creativecommons.org/ns#"
   xmlns:rdf="http://www.w3.org/1999/02/22-rdf-syntax-ns#"
   xmlns:svg="http://www.w3.org/2000/svg"
   xmlns="http://www.w3.org/2000/svg"
   xmlns:sodipodi="http://sodipodi.sourceforge.net/DTD/sodipodi-0.dtd"
   xmlns:inkscape="http://www.inkscape.org/namespaces/inkscape"
   width="75mm"
   height="150mm"
   viewBox="0 0 75.000002 150"
   version="1.1"
   id="svg8"
   inkscape:version="0.92.4 5da689c313, 2019-01-14"
   sodipodi:docname="logo.svg"
   inkscape:export-filename="/home/ccoors/dev/afu-group-trainer/assets/logo_x3.png"
   inkscape:export-xdpi="150.02933"
   inkscape:export-ydpi="150.02933">
  <defs
     id="defs2">
    <linearGradient
       id="linearGradient3665"
       osb:paint="solid">
      <stop
         style="stop-color:#49ec2a;stop-opacity:1;"
         offset="0"
         id="stop3663" />
    </linearGradient>
    <inkscape:path-effect
       effect="bspline"
       id="path-effect1822"
       is_visible="true"
       weight="33.333333"
       steps="2"
       helper_size="0"
       apply_no_weight="true"
       apply_with_weight="true"
       only_selected="false" />
    <inkscape:path-effect
       effect="bspline"
       id="path-effect1798"
       is_visible="true"
       weight="33.333333"
       steps="2"
       helper_size="0"
       apply_no_weight="true"
       apply_with_weight="true"
       only_selected="false" />
    <inkscape:path-effect
       only_selected="false"
       apply_with_weight="true"
       apply_no_weight="true"
       helper_size="0"
       steps="2"
       weight="33.333333"
       is_visible="true"
       id="path-effect1750"
       effect="bspline" />
    <inkscape:path-effect
       effect="bspline"
       id="path-effect1746"
       is_visible="true"
       weight="33.333333"
       steps="2"
       helper_size="0"
       apply_no_weight="true"
       apply_with_weight="true"
       only_selected="false" />
    <inkscape:path-effect
       only_selected="false"
       apply_with_weight="true"
       apply_no_weight="true"
       helper_size="0"
       steps="2"
       weight="33.333333"
       is_visible="true"
       id="path-effect1742"
       effect="bspline" />
    <inkscape:path-effect
       only_selected="false"
       apply_with_weight="true"
       apply_no_weight="true"
       helper_size="0"
       steps="2"
       weight="33.333333"
       is_visible="true"
       id="path-effect1732"
       effect="bspline" />
    <inkscape:path-effect
       only_selected="false"
       apply_with_weight="true"
       apply_no_weight="true"
       helper_size="0"
       steps="2"
       weight="33.333333"
       is_visible="true"
       id="path-effect1728"
       effect="bspline" />
    <inkscape:path-effect
       effect="bspline"
       id="path-effect1724"
       is_visible="true"
       weight="33.333333"
       steps="2"
       helper_size="0"
       apply_no_weight="true"
       apply_with_weight="true"
       only_selected="false" />
    <inkscape:path-effect
       effect="bspline"
       id="path-effect1720"
       is_visible="true"
       weight="33.333333"
       steps="2"
       helper_size="0"
       apply_no_weight="true"
       apply_with_weight="true"
       only_selected="false" />
    <inkscape:path-effect
       effect="bspline"
       id="path-effect1716"
       is_visible="true"
       weight="33.333333"
       steps="2"
       helper_size="0"
       apply_no_weight="true"
       apply_with_weight="true"
       only_selected="false" />
    <inkscape:path-effect
       only_selected="false"
       apply_with_weight="true"
       apply_no_weight="true"
       helper_size="0"
       steps="2"
       weight="33.333333"
       is_visible="true"
       id="path-effect1712"
       effect="bspline" />
    <inkscape:path-effect
       only_selected="false"
       apply_with_weight="true"
       apply_no_weight="true"
       helper_size="0"
       steps="2"
       weight="33.333333"
       is_visible="true"
       id="path-effect1654"
       effect="bspline" />
    <inkscape:path-effect
       effect="bspline"
       id="path-effect1624"
       is_visible="true"
       weight="33.333333"
       steps="2"
       helper_size="0"
       apply_no_weight="true"
       apply_with_weight="true"
       only_selected="false" />
    <inkscape:path-effect
       effect="bspline"
       id="path-effect1560"
       is_visible="true"
       weight="33.333333"
       steps="2"
       helper_size="0"
       apply_no_weight="true"
       apply_with_weight="true"
       only_selected="false" />
    <inkscape:path-effect
       effect="bspline"
       id="path-effect1624-2"
       is_visible="true"
       weight="33.333333"
       steps="2"
       helper_size="0"
       apply_no_weight="true"
       apply_with_weight="true"
       only_selected="false" />
    <inkscape:path-effect
       effect="bspline"
       id="path-effect1624-0"
       is_visible="true"
       weight="33.333333"
       steps="2"
       helper_size="0"
       apply_no_weight="true"
       apply_with_weight="true"
       only_selected="false" />
    <inkscape:path-effect
       effect="bspline"
       id="path-effect1624-3"
       is_visible="true"
       weight="33.333333"
       steps="2"
       helper_size="0"
       apply_no_weight="true"
       apply_with_weight="true"
       only_selected="false" />
    <inkscape:path-effect
       only_selected="false"
       apply_with_weight="true"
       apply_no_weight="true"
       helper_size="0"
       steps="2"
       weight="33.333333"
       is_visible="true"
       id="path-effect1654-7"
       effect="bspline" />
    <inkscape:path-effect
       only_selected="false"
       apply_with_weight="true"
       apply_no_weight="true"
       helper_size="0"
       steps="2"
       weight="33.333333"
       is_visible="true"
       id="path-effect1654-7-3"
       effect="bspline" />
  </defs>
  <sodipodi:namedview
     id="base"
     pagecolor="#ffffff"
     bordercolor="#666666"
     borderopacity="1.0"
     inkscape:pageopacity="0.0"
     inkscape:pageshadow="2"
     inkscape:zoom="2.8284271"
     inkscape:cx="63.324344"
     inkscape:cy="274.30282"
     inkscape:document-units="mm"
     inkscape:current-layer="layer1"
     showgrid="false"
     showguides="true"
     inkscape:window-width="3840"
     inkscape:window-height="2078"
     inkscape:window-x="3840"
     inkscape:window-y="40"
     inkscape:window-maximized="0"
     fit-margin-top="0"
     fit-margin-left="0"
     fit-margin-right="0"
     fit-margin-bottom="0" />
  <metadata
     id="metadata5">
    <rdf:RDF>
      <cc:Work
         rdf:about="">
        <dc:format>image/svg+xml</dc:format>
        <dc:type
           rdf:resource="http://purl.org/dc/dcmitype/StillImage" />
        <dc:title />
      </cc:Work>
    </rdf:RDF>
  </metadata>
  <g
     inkscape:groupmode="layer"
     id="layer2"
     inkscape:label="bg"
     transform="translate(-28.938807,171.32248)">
    <rect
       style="fill:#000000;fill-opacity:1;fill-rule:nonzero;stroke:none;stroke-width:0.61238158;stroke-linecap:butt;stroke-linejoin:round;stroke-miterlimit:6.69999981;stroke-dasharray:none;stroke-dashoffset:0;stroke-opacity:1;paint-order:normal"
       id="rect884"
       width="75"
       height="75"
       x="28.938807"
       y="-96.322487" />
    <rect
       y="-171.32248"
       x="28.938807"
       height="75"
       width="75"
       id="rect912"
       style="fill:#ffffff;fill-opacity:1;fill-rule:nonzero;stroke:none;stroke-width:0.61238158;stroke-linecap:butt;stroke-linejoin:round;stroke-miterlimit:6.69999981;stroke-dasharray:none;stroke-dashoffset:0;stroke-opacity:1;paint-order:normal" />
  </g>
  <g
     inkscape:label="Layer 1"
     inkscape:groupmode="layer"
     id="layer1"
     transform="translate(-28.938807,171.32248)">
    <g
       id="g1471">
      <rect
         ry="5"
         y="-156.32248"
         x="43.938805"
         height="45"
         width="45"
         id="rect1072"
         style="opacity:1;fill:#262626;fill-opacity:1;fill-rule:nonzero;stroke:#6c6c6c;stroke-width:3;stroke-linecap:butt;stroke-linejoin:bevel;stroke-miterlimit:4;stroke-dasharray:none;stroke-dashoffset:0;stroke-opacity:1;paint-order:markers stroke fill" />
      <g
         id="g1420"
         transform="matrix(2.6270069,0,0,2.6270069,-105.22516,-329.12358)">
        <path
           inkscape:connector-curvature="0"
           id="path819"
           style="font-style:normal;font-variant:normal;font-weight:normal;font-stretch:normal;font-size:10.58333302px;line-height:1.25;font-family:Vollkorn;-inkscape-font-specification:Vollkorn;letter-spacing:0px;word-spacing:0px;fill:#fefefe;fill-opacity:1;stroke:none;stroke-width:0.26458332"
           d="m 69.3675,74.089585 c -0.328083,-0.05292 -0.465667,-0.22225 -0.814917,-1.016 l -2.518833,-5.7785 c -0.169333,0 -0.275167,0.01058 -0.41275,0.04233 l -2.19075,5.61975 c -0.328083,0.836083 -0.480283,1.051199 -0.861283,1.125282 -0.05292,0.127 -0.02605,0.28705 -0.02605,0.424633 0.201084,-0.01058 0.495758,0.0058 0.845008,0.0058 0.34925,0 0.762,0.01058 1.005417,0.03175 0,-0.169333 -0.02117,-0.328083 -0.07408,-0.455083 -0.582083,-0.04233 -0.6985,-0.296334 -0.381,-1.132417 l 0.28575,-0.73025 c 0.836083,-0.03175 1.905,-0.04233 2.794,-0.04233 l 0.465667,1.0795 c 0.275166,0.645583 0.201083,0.762 -0.381,0.8255 -0.0635,0.127 -0.07408,0.28575 -0.07408,0.455083 0.779432,0.208848 1.629762,0.207032 2.402417,0 0,-0.169333 -0.01058,-0.275167 -0.0635,-0.455083 z m -4.953,-2.38125 0.73025,-1.894417 c 0.116417,-0.3175 0.243417,-0.645583 0.402167,-1.143 0.169333,0.486834 0.28575,0.740834 0.465666,1.153584 l 0.804334,1.883833 z"
           sodipodi:nodetypes="cccccccsccccccccccccccccc" />
        <path
           inkscape:connector-curvature="0"
           id="path821"
           style="font-style:normal;font-variant:normal;font-weight:normal;font-stretch:normal;font-size:10.58333302px;line-height:1.25;font-family:Vollkorn;-inkscape-font-specification:Vollkorn;letter-spacing:0px;word-spacing:0px;fill:#d94d1a;fill-opacity:1;stroke:none;stroke-width:0.26458332"
           d="m 61.662838,81.392078 c 1.195917,0 2.169584,-0.34925 2.772834,-0.79375 -0.116417,-0.211667 -0.137584,-0.4445 -0.137584,-0.740833 v -0.47625 c 0,-0.9525 0.07408,-1.037167 0.497417,-1.058334 0.05292,-0.137583 0.0635,-0.34925 0.0635,-0.47625 -0.22225,0.01058 -0.804333,0.02117 -1.23825,0.02117 -0.433917,0 -1.026583,-0.01058 -1.291167,-0.03175 0,0.169333 0.02117,0.381 0.0635,0.486833 0.804334,0.02117 0.910167,0.09525 0.910167,1.058334 v 0.529166 c 0,0.53975 -0.116417,0.687917 -0.359833,0.79375 -0.338667,0.137584 -0.645584,0.169334 -1.068917,0.169334 -1.725083,0 -2.57175,-1.55575 -2.57175,-3.481917 0,-1.513416 0.8255,-2.910416 2.63525,-2.910416 0.973667,0 1.725083,0.3175 1.778,1.799166 0.22225,0 0.391583,-0.03175 0.560917,-0.09525 0,-0.624416 0.02117,-1.143 0.116416,-1.640416 -0.624416,-0.296334 -1.524,-0.497417 -2.54,-0.497417 -1.852083,0 -3.672416,1.2065 -3.672416,3.577166 0,2.275417 1.397,3.767667 3.481916,3.767667 z" />
        <path
           inkscape:connector-curvature="0"
           id="path823"
           style="font-style:normal;font-variant:normal;font-weight:normal;font-stretch:normal;font-size:10.58333302px;line-height:1.25;font-family:Vollkorn;-inkscape-font-specification:Vollkorn;letter-spacing:0px;word-spacing:0px;fill:#f2ab27;fill-opacity:1;stroke:none;stroke-width:0.26458332"
           d="m 72.447261,74.544668 h -5.418666 c 0,0.486833 -0.0635,1.100667 -0.169334,1.693333 0.127,0.07408 0.34925,0.09525 0.508,0.09525 0.148167,-0.772583 0.296334,-1.291166 1.322917,-1.291166 h 0.53975 v 4.974108 c 0,0.709083 -0.169333,0.889 -0.846667,0.92075 -0.04233,0.116416 -0.05292,0.264583 -0.05292,0.455083 0.391583,-0.02117 0.941916,-0.03175 1.386416,-0.03175 0.4445,0 0.931333,0.01058 1.386417,0.03175 0,-0.1905 -0.01058,-0.338667 -0.05292,-0.455083 -0.687917,-0.03175 -0.8255,-0.211667 -0.8255,-0.92075 v -4.974108 h 0.560917 c 0.8255,0 1.17475,0.465666 1.195916,1.291166 0.211667,0.01058 0.381,-0.02117 0.529167,-0.09525 -0.0635,-0.677333 -0.08467,-1.185333 -0.0635,-1.693333 z"
           sodipodi:nodetypes="ccccscsccsccscscccc" />
      </g>
    </g>
    <g
       id="g1483"
       transform="translate(1.9073486e-6,74.999992)">
      <rect
         style="opacity:1;fill:#262626;fill-opacity:1;fill-rule:nonzero;stroke:#6c6c6c;stroke-width:3;stroke-linecap:butt;stroke-linejoin:bevel;stroke-miterlimit:4;stroke-dasharray:none;stroke-dashoffset:0;stroke-opacity:1;paint-order:markers stroke fill"
         id="rect1473"
         width="45"
         height="45"
         x="43.938805"
         y="-156.32248"
         ry="5" />
      <g
         transform="matrix(2.6270069,0,0,2.6270069,-105.22516,-329.12358)"
         id="g1481">
        <path
           sodipodi:nodetypes="cccccccsccccccccccccccccc"
           d="m 69.3675,74.089585 c -0.328083,-0.05292 -0.465667,-0.22225 -0.814917,-1.016 l -2.518833,-5.7785 c -0.169333,0 -0.275167,0.01058 -0.41275,0.04233 l -2.19075,5.61975 c -0.328083,0.836083 -0.480283,1.051199 -0.861283,1.125282 -0.05292,0.127 -0.02605,0.28705 -0.02605,0.424633 0.201084,-0.01058 0.495758,0.0058 0.845008,0.0058 0.34925,0 0.762,0.01058 1.005417,0.03175 0,-0.169333 -0.02117,-0.328083 -0.07408,-0.455083 -0.582083,-0.04233 -0.6985,-0.296334 -0.381,-1.132417 l 0.28575,-0.73025 c 0.836083,-0.03175 1.905,-0.04233 2.794,-0.04233 l 0.465667,1.0795 c 0.275166,0.645583 0.201083,0.762 -0.381,0.8255 -0.0635,0.127 -0.07408,0.28575 -0.07408,0.455083 0.779432,0.208848 1.629762,0.207032 2.402417,0 0,-0.169333 -0.01058,-0.275167 -0.0635,-0.455083 z m -4.953,-2.38125 0.73025,-1.894417 c 0.116417,-0.3175 0.243417,-0.645583 0.402167,-1.143 0.169333,0.486834 0.28575,0.740834 0.465666,1.153584 l 0.804334,1.883833 z"
           style="font-style:normal;font-variant:normal;font-weight:normal;font-stretch:normal;font-size:10.58333302px;line-height:1.25;font-family:Vollkorn;-inkscape-font-specification:Vollkorn;letter-spacing:0px;word-spacing:0px;fill:#fefefe;fill-opacity:1;stroke:none;stroke-width:0.26458332"
           id="path1475"
           inkscape:connector-curvature="0" />
        <path
           d="m 61.662838,81.392078 c 1.195917,0 2.169584,-0.34925 2.772834,-0.79375 -0.116417,-0.211667 -0.137584,-0.4445 -0.137584,-0.740833 v -0.47625 c 0,-0.9525 0.07408,-1.037167 0.497417,-1.058334 0.05292,-0.137583 0.0635,-0.34925 0.0635,-0.47625 -0.22225,0.01058 -0.804333,0.02117 -1.23825,0.02117 -0.433917,0 -1.026583,-0.01058 -1.291167,-0.03175 0,0.169333 0.02117,0.381 0.0635,0.486833 0.804334,0.02117 0.910167,0.09525 0.910167,1.058334 v 0.529166 c 0,0.53975 -0.116417,0.687917 -0.359833,0.79375 -0.338667,0.137584 -0.645584,0.169334 -1.068917,0.169334 -1.725083,0 -2.57175,-1.55575 -2.57175,-3.481917 0,-1.513416 0.8255,-2.910416 2.63525,-2.910416 0.973667,0 1.725083,0.3175 1.778,1.799166 0.22225,0 0.391583,-0.03175 0.560917,-0.09525 0,-0.624416 0.02117,-1.143 0.116416,-1.640416 -0.624416,-0.296334 -1.524,-0.497417 -2.54,-0.497417 -1.852083,0 -3.672416,1.2065 -3.672416,3.577166 0,2.275417 1.397,3.767667 3.481916,3.767667 z"
           style="font-style:normal;font-variant:normal;font-weight:normal;font-stretch:normal;font-size:10.58333302px;line-height:1.25;font-family:Vollkorn;-inkscape-font-specification:Vollkorn;letter-spacing:0px;word-spacing:0px;fill:#d94d1a;fill-opacity:1;stroke:none;stroke-width:0.26458332"
           id="path1477"
           inkscape:connector-curvature="0" />
        <path
           sodipodi:nodetypes="ccccscsccsccscscccc"
           d="m 72.447261,74.544668 h -5.418666 c 0,0.486833 -0.0635,1.100667 -0.169334,1.693333 0.127,0.07408 0.34925,0.09525 0.508,0.09525 0.148167,-0.772583 0.296334,-1.291166 1.322917,-1.291166 h 0.53975 v 4.974108 c 0,0.709083 -0.169333,0.889 -0.846667,0.92075 -0.04233,0.116416 -0.05292,0.264583 -0.05292,0.455083 0.391583,-0.02117 0.941916,-0.03175 1.386416,-0.03175 0.4445,0 0.931333,0.01058 1.386417,0.03175 0,-0.1905 -0.01058,-0.338667 -0.05292,-0.455083 -0.687917,-0.03175 -0.8255,-0.211667 -0.8255,-0.92075 v -4.974108 h 0.560917 c 0.8255,0 1.17475,0.465666 1.195916,1.291166 0.211667,0.01058 0.381,-0.02117 0.529167,-0.09525 -0.0635,-0.677333 -0.08467,-1.185333 -0.0635,-1.693333 z"
           style="font-style:normal;font-variant:normal;font-weight:normal;font-stretch:normal;font-size:10.58333302px;line-height:1.25;font-family:Vollkorn;-inkscape-font-specification:Vollkorn;letter-spacing:0px;word-spacing:0px;fill:#f2ab27;fill-opacity:1;stroke:none;stroke-width:0.26458332"
           id="path1479"
           inkscape:connector-curvature="0" />
      </g>
    </g>
  </g>
</svg>
