<?xml version="1.0" encoding="UTF-8" standalone="no"?>
<!-- Created with Inkscape (http://www.inkscape.org/) -->

<svg
   xmlns:osb="http://www.openswatchbook.org/uri/2009/osb"
   xmlns:dc="http://purl.org/dc/elements/1.1/"
   xmlns:cc="http://creativecommons.org/ns#"
   xmlns:rdf="http://www.w3.org/1999/02/22-rdf-syntax-ns#"
   xmlns:svg="http://www.w3.org/2000/svg"
   xmlns="http://www.w3.org/2000/svg"
   xmlns:sodipodi="http://sodipodi.sourceforge.net/DTD/sodipodi-0.dtd"
   xmlns:inkscape="http://www.inkscape.org/namespaces/inkscape"
   width="75mm"
   height="150mm"
   viewBox="0 0 75.000002 150"
   version="1.1"
   id="svg8"
   inkscape:version="0.92.4 5da689c313, 2019-01-14"
   sodipodi:docname="logo.svg"
   inkscape:export-filename="/home/ccoors/dev/afu-group-trainer/assets/logo_x3.png"
   inkscape:export-xdpi="150.02933"
   inkscape:export-ydpi="150.02933">
  <defs
     id="defs2">
    <linearGradient
       id="linearGradient3665"
       osb:paint="solid">
      <stop
         style="stop-color:#49ec2a;stop-opacity:1;"
         offset="0"
         id="stop3663" />
    </linearGradient>
    <inkscape:path-effect
       effect="bspline"
       id="path-effect1822"
       is_visible="true"
       weight="33.333333"
       steps="2"
       helper_size="0"
       apply_no_weight="true"
       apply_with_weight="true"
       only_selected="false" />
    <inkscape:path-effect
       effect="bspline"
       id="path-effect1798"
       is_visible="true"
       weight="33.333333"
       steps="2"
       helper_size="0"
       apply_no_weight="true"
       apply_with_weight="true"
       only_selected="false" />
    <inkscape:path-effect
       only_selected="false"
       apply_with_weight="true"
       apply_no_weight="true"
       helper_size="0"
       steps="2"
       weight="33.333333"
       is_visible="true"
       id="path-effect1750"
       effect="bspline" />
    <inkscape:path-effect
       effect="bspline"
       id="path-effect1746"
       is_visible="true"
       weight="33.333333"
       steps="2"
       helper_size="0"
       apply_no_weight="true"
       apply_with_weight="true"
       only_selected="false" />
    <inkscape:path-effect
       only_selected="false"
       apply_with_weight="true"
       apply_no_weight="true"
       helper_size="0"
       steps="2"
       weight="33.333333"
       is_visible="true"
       id="path-effect1742"
       effect="bspline" />
    <inkscape:path-effect
       only_selected="false"
       apply_with_weight="true"
       apply_no_weight="true"
       helper_size="0"
       steps="2"
       weight="33.333333"
       is_visible="true"
       id="path-effect1732"
       effect="bspline" />
    <inkscape:path-effect
       only_selected="false"
       apply_with_weight="true"
       apply_no_weight="true"
       helper_size="0"
       steps="2"
       weight="33.333333"
       is_visible="true"
       id="path-effect1728"
       effect="bspline" />
    <inkscape:path-effect
       effect="bspline"
       id="path-effect1724"
       is_visible="true"
       weight="33.333333"
       steps="2"
       helper_size="0"
       apply_no_weight="true"
       apply_with_weight="true"
       only_selected="false" />
    <inkscape:path-effect
       effect="bspline"
       id="path-effect1720"
       is_visible="true"
       weight="33.333333"
       steps="2"
       helper_size="0"
       apply_no_weight="true"
       apply_with_weight="true"
       only_selected="false" />
    <inkscape:path-effect
       effect="bspline"
       id="path-effect1716"
       is_visible="true"
       weight="33.333333"
       steps="2"
       helper_size="0"
       apply_no_weight="true"
       apply_with_weight="true"
       only_selected="false" />
    <inkscape:path-effect
       only_selected="false"
       apply_with_weight="true"
       apply_no_weight="true"
       helper_size="0"
       steps="2"
       weight="33.333333"
       is_visible="true"
       id="path-effect1712"
       effect="bspline" />
    <inkscape:path-effect
       only_selected="false"
       apply_with_weight="true"
       apply_no_weight="true"
       helper_size="0"
       steps="2"
       weight="33.333333"
       is_visible="true"
       id="path-effect1654"
       effect="bspline" />
    <inkscape:path-effect
       effect="bspline"
       id="path-effect1624"
       is_visible="true"
       weight="33.333333"
       steps="2"
       helper_size="0"
       apply_no_weight="true"
       apply_with_weight="true"
       only_selected="false" />
    <inkscape:path-effect
       effect="bspline"
       id="path-effect1560"
       is_visible="true"
       weight="33.333333"
       steps="2"
       helper_size="0"
       apply_no_weight="true"
       apply_with_weight="true"
       only_selected="false" />
    <inkscape:path-effect
       effect="bspline"
       id="path-effect1624-2"
       is_visible="true"
       weight="33.333333"
       steps="2"
       helper_size="0"
       apply_no_weight="true"
       apply_with_weight="true"
       only_selected="false" />
    <inkscape:path-effect
       effect="bspline"
       id="path-effect1624-0"
       is_visible="true"
       weight="33.333333"
       steps="2"
       helper_size="0"
       apply_no_weight="true"
       apply_with_weight="true"
       only_selected="false" />
    <inkscape:path-effect
       effect="bspline"
       id="path-effect1624-3"
       is_visible="true"
       weight="33.333333"
       steps="2"
       helper_size="0"
       apply_no_weight="true"
       apply_with_weight="true"
       only_selected="false" />
    <inkscape:path-effect
       only_selected="false"
       apply_with_weight="true"
       apply_no_weight="true"
       helper_size="0"
       steps="2"
       weight="33.333333"
       is_visible="true"
       id="path-effect1654-7"
       effect="bspline" />
    <inkscape:path-effect
       only_selected="false"
       apply_with_weight="true"
       apply_no_weight="true"
       helper_size="0"
       steps="2"
       weight="33.333333"
       is_visible="true"
       id="path-effect1654-7-3"
       effect="bspline" />
  </defs>
  <sodipodi:namedview
     id="base"
     pagecolor="#ffffff"
     bordercolor="#666666"
     borderopacity="1.0"
     inkscape:pageopacity="0.0"
     inkscape:pageshadow="2"
     inkscape:zoom="2"
     inkscape:cx="95.441634"
     inkscape:cy="250.64303"
     inkscape:document-units="mm"
     inkscape:current-layer="layer1"
     showgrid="false"
     showguides="true"
     inkscape:window-width="3840"
     inkscape:window-height="2078"
     inkscape:window-x="3840"
     inkscape:window-y="40"
     inkscape:window-maximized="0"
     fit-margin-top="0"
     fit-margin-left="0"
     fit-margin-right="0"
     fit-margin-bottom="0" />
  <metadata
     id="metadata5">
    <rdf:RDF>
      <cc:Work
         rdf:about="">
        <dc:format>image/svg+xml</dc:format>
        <dc:type
           rdf:resource="http://purl.org/dc/dcmitype/StillImage" />
        <dc:title></dc:title>
      </cc:Work>
    </rdf:RDF>
  </metadata>
  <g
     inkscape:groupmode="layer"
     id="layer2"
     inkscape:label="bg"
     transform="translate(-28.938807,171.32248)">
    <rect
       style="fill:#000000;fill-opacity:1;fill-rule:nonzero;stroke:none;stroke-width:0.61238158;stroke-linecap:butt;stroke-linejoin:round;stroke-miterlimit:6.69999981;stroke-dasharray:none;stroke-dashoffset:0;stroke-opacity:1;paint-order:normal"
       id="rect884"
       width="75"
       height="75"
       x="28.938807"
       y="-96.322487" />
    <rect
       y="-171.32248"
       x="28.938807"
       height="75"
       width="75"
       id="rect912"
       style="fill:#ffffff;fill-opacity:1;fill-rule:nonzero;stroke:none;stroke-width:0.61238158;stroke-linecap:butt;stroke-linejoin:round;stroke-miterlimit:6.69999981;stroke-dasharray:none;stroke-dashoffset:0;stroke-opacity:1;paint-order:normal" />
  </g>
  <g
     inkscape:label="Layer 1"
     inkscape:groupmode="layer"
     id="layer1"
     transform="translate(-28.938807,171.32248)">
    <g
       id="g4979"
       transform="translate(-11.508818,4.7707672)">
      <rect
         ry="5"
         y="-161.09325"
         x="55.447624"
         height="45"
         width="45"
         id="rect1072"
         style="opacity:1;fill:#262626;fill-opacity:1;fill-rule:nonzero;stroke:#6c6c6c;stroke-width:3;stroke-linecap:butt;stroke-linejoin:bevel;stroke-miterlimit:4;stroke-dasharray:none;stroke-dashoffset:0;stroke-opacity:1;paint-order:markers stroke fill" />
      <g
         transform="matrix(1.113866,0,0,1.113866,2.7954784,11.340948)"
         id="g4972">
        <path
           inkscape:connector-curvature="0"
           id="path1878"
           style="font-style:normal;font-variant:normal;font-weight:normal;font-stretch:normal;font-size:10.58333302px;line-height:1.25;font-family:Vollkorn;-inkscape-font-specification:Vollkorn;letter-spacing:0px;word-spacing:0px;fill:#ffffff;fill-opacity:1;stroke:none;stroke-width:0.63188922"
           d="m 77.074353,-135.22148 c -0.783542,-0.12634 -1.112124,-0.53078 -1.946218,-2.42645 l -6.015587,-13.80046 c -0.404408,0 -0.657163,0.0253 -0.985747,0.10102 l -5.232043,13.42133 c -0.783542,1.99678 -1.112124,2.55284 -2.022044,2.72976 -0.126386,0.30331 3.740798,1.01116 4.322136,1.06155 0,-0.4044 -0.05056,-0.78354 -0.176921,-1.08684 -1.390155,-0.10103 -1.668187,-0.70771 -0.90992,-2.7045 l 0.68244,-1.74401 c 1.996772,-0.0759 4.549603,-0.10102 6.672751,-0.10102 l 1.112126,2.5781 c 0.657165,1.54181 0.480235,1.81985 -0.909921,1.9715 -0.151653,0.30331 0.06326,0.59026 -0.176921,1.08684 0.320146,0.0858 3.785726,0.25769 5.737553,0 -0.02006,-0.4039 -0.02527,-0.65715 -0.151653,-1.08684 z m -11.828967,-5.687 1.744014,-4.52434 c 0.278032,-0.75826 0.581339,-1.5418 0.960472,-2.72976 0.404409,1.1627 0.682441,1.76931 1.112126,2.75506 l 1.920943,4.49904 z"
           sodipodi:nodetypes="ccccccccccccccccccccccc" />
        <path
           inkscape:connector-curvature="0"
           id="path1880"
           style="font-style:normal;font-variant:normal;font-weight:normal;font-stretch:normal;font-size:10.58333302px;line-height:1.25;font-family:Vollkorn;-inkscape-font-specification:Vollkorn;letter-spacing:0px;word-spacing:0px;fill:#d94d1a;fill-opacity:1;stroke:none;stroke-width:0.63188922"
           d="m 58.673751,-117.78152 c 2.856138,0 5.181491,-0.8341 6.622199,-1.89567 -0.278033,-0.5055 -0.328584,-1.06158 -0.328584,-1.76928 v -1.13741 c 0,-2.2748 0.176921,-2.47701 1.187952,-2.52754 0.126386,-0.3286 0.151654,-0.8341 0.151654,-1.1374 -0.530787,0.0253 -1.920943,0.0506 -2.957242,0.0506 -1.036299,0 -2.45173,-0.0253 -3.083618,-0.076 0,0.40442 0.05056,0.90992 0.151653,1.16269 1.920943,0.0506 2.173698,0.2276 2.173698,2.52755 v 1.26379 c 0,1.28905 -0.278032,1.64289 -0.859369,1.89567 -0.808819,0.32857 -1.541809,0.4044 -2.552833,0.4044 -4.119917,0 -6.141964,-3.71551 -6.141964,-8.31567 0,-3.61439 1.971495,-6.95077 6.293617,-6.95077 2.325353,0 4.119917,0.75827 4.246296,4.29683 0.530787,0 0.935195,-0.0757 1.339606,-0.22736 0,-1.49124 0.05056,-2.72976 0.27803,-3.9177 -1.491257,-0.70773 -3.63968,-1.18796 -6.066135,-1.18796 -4.423226,0 -8.770624,2.88142 -8.770624,8.54315 0,5.43424 3.336376,8.99809 8.315664,8.99809 z" />
        <path
           inkscape:connector-curvature="0"
           id="path1882"
           style="font-style:normal;font-variant:normal;font-weight:normal;font-stretch:normal;font-size:10.58333302px;line-height:1.25;font-family:Vollkorn;-inkscape-font-specification:Vollkorn;letter-spacing:0px;word-spacing:0px;fill:#f2ab27;fill-opacity:1;stroke:none;stroke-width:0.63188922"
           d="M 84.42957,-134.13464 H 71.488479 c -0.601873,0.99476 -0.151653,2.62867 -0.40441,4.04409 0.303307,0.17697 0.834094,0.22736 1.213227,0.22736 0.353859,-1.84511 0.707718,-3.08361 3.159447,-3.08361 h 1.289054 v 11.89532 c 0,1.69345 -0.404408,2.12315 -2.022046,2.19897 -0.101094,0.27804 -0.126386,0.63188 -0.126386,1.08684 0.935195,-0.0506 2.249524,-0.0757 3.311098,-0.0757 1.061574,0 2.224252,0.0253 3.311101,0.0757 0,-0.45496 -0.02527,-0.8088 -0.126386,-1.08684 -1.642911,-0.0757 -1.971495,-0.50552 -1.971495,-2.19897 v -11.89532 h 1.339606 c 1.971495,0 2.805589,1.11211 2.856141,3.08361 0.505509,0.0253 0.90992,-0.0506 1.263777,-0.22736 -0.151654,-1.61763 -0.202213,-2.83086 -0.151654,-4.04409 z"
           sodipodi:nodetypes="ccccscsccsccscscccc" />
      </g>
    </g>
    <g
       id="g4991"
       transform="translate(-11.508818,79.77076)">
      <rect
         style="opacity:1;fill:#262626;fill-opacity:1;fill-rule:nonzero;stroke:#6c6c6c;stroke-width:3;stroke-linecap:butt;stroke-linejoin:bevel;stroke-miterlimit:4;stroke-dasharray:none;stroke-dashoffset:0;stroke-opacity:1;paint-order:markers stroke fill"
         id="rect4981"
         width="45"
         height="45"
         x="55.447624"
         y="-161.09325"
         ry="5" />
      <g
         id="g4989"
         transform="matrix(1.113866,0,0,1.113866,2.7954784,11.340948)">
        <path
           sodipodi:nodetypes="ccccccccccccccccccccccc"
           d="m 77.074353,-135.22148 c -0.783542,-0.12634 -1.112124,-0.53078 -1.946218,-2.42645 l -6.015587,-13.80046 c -0.404408,0 -0.657163,0.0253 -0.985747,0.10102 l -5.232043,13.42133 c -0.783542,1.99678 -1.112124,2.55284 -2.022044,2.72976 -0.126386,0.30331 3.740798,1.01116 4.322136,1.06155 0,-0.4044 -0.05056,-0.78354 -0.176921,-1.08684 -1.390155,-0.10103 -1.668187,-0.70771 -0.90992,-2.7045 l 0.68244,-1.74401 c 1.996772,-0.0759 4.549603,-0.10102 6.672751,-0.10102 l 1.112126,2.5781 c 0.657165,1.54181 0.480235,1.81985 -0.909921,1.9715 -0.151653,0.30331 0.06326,0.59026 -0.176921,1.08684 0.320146,0.0858 3.785726,0.25769 5.737553,0 -0.02006,-0.4039 -0.02527,-0.65715 -0.151653,-1.08684 z m -11.828967,-5.687 1.744014,-4.52434 c 0.278032,-0.75826 0.581339,-1.5418 0.960472,-2.72976 0.404409,1.1627 0.682441,1.76931 1.112126,2.75506 l 1.920943,4.49904 z"
           style="font-style:normal;font-variant:normal;font-weight:normal;font-stretch:normal;font-size:10.58333302px;line-height:1.25;font-family:Vollkorn;-inkscape-font-specification:Vollkorn;letter-spacing:0px;word-spacing:0px;fill:#ffffff;fill-opacity:1;stroke:none;stroke-width:0.63188922"
           id="path4983"
           inkscape:connector-curvature="0" />
        <path
           d="m 58.673751,-117.78152 c 2.856138,0 5.181491,-0.8341 6.622199,-1.89567 -0.278033,-0.5055 -0.328584,-1.06158 -0.328584,-1.76928 v -1.13741 c 0,-2.2748 0.176921,-2.47701 1.187952,-2.52754 0.126386,-0.3286 0.151654,-0.8341 0.151654,-1.1374 -0.530787,0.0253 -1.920943,0.0506 -2.957242,0.0506 -1.036299,0 -2.45173,-0.0253 -3.083618,-0.076 0,0.40442 0.05056,0.90992 0.151653,1.16269 1.920943,0.0506 2.173698,0.2276 2.173698,2.52755 v 1.26379 c 0,1.28905 -0.278032,1.64289 -0.859369,1.89567 -0.808819,0.32857 -1.541809,0.4044 -2.552833,0.4044 -4.119917,0 -6.141964,-3.71551 -6.141964,-8.31567 0,-3.61439 1.971495,-6.95077 6.293617,-6.95077 2.325353,0 4.119917,0.75827 4.246296,4.29683 0.530787,0 0.935195,-0.0757 1.339606,-0.22736 0,-1.49124 0.05056,-2.72976 0.27803,-3.9177 -1.491257,-0.70773 -3.63968,-1.18796 -6.066135,-1.18796 -4.423226,0 -8.770624,2.88142 -8.770624,8.54315 0,5.43424 3.336376,8.99809 8.315664,8.99809 z"
           style="font-style:normal;font-variant:normal;font-weight:normal;font-stretch:normal;font-size:10.58333302px;line-height:1.25;font-family:Vollkorn;-inkscape-font-specification:Vollkorn;letter-spacing:0px;word-spacing:0px;fill:#d94d1a;fill-opacity:1;stroke:none;stroke-width:0.63188922"
           id="path4985"
           inkscape:connector-curvature="0" />
        <path
           sodipodi:nodetypes="ccccscsccsccscscccc"
           d="M 84.42957,-134.13464 H 71.488479 c -0.601873,0.99476 -0.151653,2.62867 -0.40441,4.04409 0.303307,0.17697 0.834094,0.22736 1.213227,0.22736 0.353859,-1.84511 0.707718,-3.08361 3.159447,-3.08361 h 1.289054 v 11.89532 c 0,1.69345 -0.404408,2.12315 -2.022046,2.19897 -0.101094,0.27804 -0.126386,0.63188 -0.126386,1.08684 0.935195,-0.0506 2.249524,-0.0757 3.311098,-0.0757 1.061574,0 2.224252,0.0253 3.311101,0.0757 0,-0.45496 -0.02527,-0.8088 -0.126386,-1.08684 -1.642911,-0.0757 -1.971495,-0.50552 -1.971495,-2.19897 v -11.89532 h 1.339606 c 1.971495,0 2.805589,1.11211 2.856141,3.08361 0.505509,0.0253 0.90992,-0.0506 1.263777,-0.22736 -0.151654,-1.61763 -0.202213,-2.83086 -0.151654,-4.04409 z"
           style="font-style:normal;font-variant:normal;font-weight:normal;font-stretch:normal;font-size:10.58333302px;line-height:1.25;font-family:Vollkorn;-inkscape-font-specification:Vollkorn;letter-spacing:0px;word-spacing:0px;fill:#f2ab27;fill-opacity:1;stroke:none;stroke-width:0.63188922"
           id="path4987"
           inkscape:connector-curvature="0" />
      </g>
    </g>
  </g>
</svg>
